<svg width="94.000000" height="39.000000" viewBox="0 0 94 39" fill="none" xmlns="http://www.w3.org/2000/svg" xmlns:xlink="http://www.w3.org/1999/xlink">
	<desc>
			Created with Pixso.
	</desc>
	<defs/>
	<path id="Vector 2" d="M10 11.42L0 21.42L10 " stroke="#000000" stroke-opacity="1.000000" stroke-width="2.000000" stroke-linejoin="round" stroke-linecap="round"/>
	<path id="Vector 3" d="M30 11.42L40 21.42L30 " stroke="#000000" stroke-opacity="1.000000" stroke-width="2.000000" stroke-linejoin="round" stroke-linecap="round"/>
	<path id="Vector 4" d="M14.94 36.08L23.53 4.04C23.65 3.6 23.39 3.15 22.95 3.04C22.52 2.92 22.07 3.18 21.95 3.62L13.37 35.66C13.25 36.1 13.51 36.54 13.94 36.66C14.38 36.78 14.83 36.52 14.94 36.08Z" fill="#000000" fill-opacity="1.000000" fill-rule="evenodd"/>
	<path id="Rectangle 2" d="M21.95 3.62C22.07 3.18 22.52 2.92 22.95 3.04C23.39 3.15 23.65 3.6 23.53 4.04L22.48 7.94L20.91 7.52L21.95 3.62Z" fill="#D9D9D9" fill-opacity="1.000000" fill-rule="evenodd"/>
	<path id="Vector 5" d="M24.69 6.02L27.84 " stroke="#000000" stroke-opacity="1.000000" stroke-width="1.000000" stroke-linecap="round"/>
	<path id="Vector 6" d="M16.8 3.9L19.96 " stroke="#000000" stroke-opacity="1.000000" stroke-width="1.000000" stroke-linecap="round"/>
	<path id="Vector 7" d="M18.64 0.21L20.28 " stroke="#000000" stroke-opacity="1.000000" stroke-width="1.000000" stroke-linecap="round"/>
	<path id="Vector 8" d="M16.58 7.89L19.4 " stroke="#000000" stroke-opacity="1.000000" stroke-width="1.000000" stroke-linecap="round"/>
	<path id="Vector 9" d="M24.27 7.58L25.91 " stroke="#000000" stroke-opacity="1.000000" stroke-width="1.000000" stroke-linecap="round"/>
	<path id="Vector 10" d="M25.14 4.32L27.97 " stroke="#000000" stroke-opacity="1.000000" stroke-width="1.000000" stroke-linecap="round"/>
	<path id="Coding" d="M71.81 13.8L71.81 4.89L70.96 4.89L70.96 8.68Q70.7 8.28 70.34 8.01Q70.15 7.87 69.94 7.76C69.53 7.55 69.07 7.44 68.56 7.44C67.97 7.44 67.43 7.57 66.95 7.85C66.47 8.11 66.09 8.49 65.82 8.97C65.55 9.46 65.41 10.02 65.41 10.64Q65.41 11.5 65.76 12.19Q65.79 12.25 65.82 12.31C66.09 12.8 66.47 13.18 66.95 13.45C67.43 13.72 67.97 13.86 68.56 13.86C69.09 13.86 69.56 13.75 69.97 13.52C70.4 13.3 70.74 12.97 70.99 12.55L70.99 13.8L71.81 13.8ZM74.17 5.93C74.29 6.05 74.44 6.11 74.62 6.11C74.79 6.11 74.94 6.05 75.06 5.93C75.18 5.81 75.24 5.66 75.24 5.48C75.24 5.32 75.18 5.19 75.06 5.07C74.94 4.95 74.79 4.89 74.62 4.89C74.44 4.89 74.29 4.95 74.17 5.07C74.05 5.19 73.99 5.33 73.99 5.49C73.99 5.66 74.05 5.81 74.17 5.93ZM52.11 13.49Q52.98 13.87 54.01 13.87Q54.95 13.87 55.74 13.56C56.28 13.34 56.73 13.03 57.1 12.63L56.53 12.07Q56.17 12.45 55.72 12.68Q54.99 13.08 54.05 13.08Q53.3 13.08 52.66 12.82Q52.44 12.74 52.24 12.62C51.69 12.32 51.26 11.9 50.95 11.37C50.65 10.85 50.5 10.25 50.5 9.6Q50.5 8.84 50.77 8.19Q50.85 8 50.95 7.82C51.26 7.29 51.69 6.88 52.24 6.57C52.78 6.27 53.38 6.12 54.05 6.12Q54.97 6.12 55.7 6.49Q56.15 6.73 56.53 7.11L57.1 6.55Q56.94 6.38 56.76 6.23Q56.32 5.86 55.75 5.64C55.22 5.43 54.65 5.33 54.02 5.33Q52.99 5.33 52.12 5.7Q51.94 5.78 51.77 5.88Q51.24 6.17 50.82 6.58Q50.46 6.95 50.18 7.41Q50.06 7.63 49.96 7.86Q49.62 8.66 49.62 9.6Q49.62 10.5 49.93 11.28Q50.04 11.54 50.18 11.79Q50.45 12.25 50.82 12.62Q51.23 13.03 51.76 13.32Q51.93 13.41 52.11 13.49ZM59.46 13.45C59.95 13.72 60.5 13.86 61.11 13.86Q61.86 13.86 62.49 13.58Q62.62 13.52 62.75 13.45C63.24 13.17 63.62 12.79 63.89 12.3C64.17 11.81 64.31 11.26 64.31 10.64Q64.31 9.87 64.02 9.24Q63.96 9.11 63.89 8.99C63.62 8.5 63.24 8.12 62.75 7.85C62.26 7.57 61.71 7.44 61.11 7.44C60.5 7.44 59.95 7.57 59.46 7.85Q59.11 8.04 58.84 8.31Q58.53 8.6 58.31 8.99C58.03 9.47 57.89 10.03 57.89 10.64Q57.89 11.41 58.18 12.05Q58.24 12.17 58.31 12.3C58.59 12.79 58.97 13.17 59.46 13.45ZM82.51 8.13C82.04 7.67 81.41 7.44 80.62 7.44Q79.81 7.44 79.18 7.76C78.77 7.97 78.45 8.27 78.22 8.65L78.22 7.49L77.41 7.49L77.41 13.8L78.26 13.8L78.26 10.49Q78.26 9.54 78.72 8.96Q78.78 8.89 78.85 8.82C79.25 8.41 79.79 8.21 80.47 8.21C81.07 8.21 81.54 8.38 81.87 8.72C82.2 9.07 82.36 9.57 82.36 10.22L82.36 13.8L83.21 13.8L83.21 10.14Q83.21 8.91 82.61 8.24Q82.56 8.18 82.51 8.13ZM91.39 13.03L91.39 7.49L90.58 7.49L90.58 8.7Q90.37 8.38 90.1 8.14Q89.84 7.92 89.53 7.76C89.1 7.55 88.62 7.44 88.08 7.44C87.48 7.44 86.94 7.57 86.46 7.82C85.98 8.08 85.6 8.44 85.32 8.9C85.05 9.37 84.91 9.89 84.91 10.49C84.91 11.08 85.05 11.61 85.32 12.08C85.6 12.55 85.98 12.91 86.46 13.17C86.95 13.43 87.49 13.56 88.08 13.56Q88.82 13.56 89.44 13.27Q89.47 13.26 89.5 13.25Q89.82 13.09 90.08 12.86Q90.34 12.63 90.54 12.33L90.54 13.14Q90.54 14.31 89.98 14.87C89.6 15.24 89.01 15.43 88.21 15.43C87.73 15.43 87.27 15.35 86.83 15.2C86.4 15.05 86.03 14.84 85.73 14.57L85.3 15.21Q85.79 15.67 86.57 15.92C87.1 16.1 87.65 16.19 88.24 16.19C89.29 16.19 90.08 15.93 90.6 15.41Q91.39 14.64 91.39 13.03ZM75.04 7.49L74.18 7.49L74.18 13.8L75.04 13.8L75.04 7.49ZM62.31 12.8C61.95 13 61.55 13.1 61.11 13.1C60.66 13.1 60.25 13 59.89 12.8C59.54 12.59 59.26 12.3 59.05 11.93C58.85 11.55 58.75 11.12 58.75 10.64Q58.75 9.93 59.04 9.38Q59.05 9.37 59.05 9.36C59.26 8.98 59.54 8.69 59.89 8.49C60.25 8.29 60.66 8.18 61.11 8.18Q61.66 8.18 62.11 8.39Q62.21 8.44 62.31 8.49C62.67 8.69 62.95 8.98 63.15 9.36C63.35 9.73 63.45 10.16 63.45 10.64Q63.45 11.35 63.16 11.91Q63.15 11.92 63.15 11.93C62.95 12.3 62.67 12.59 62.31 12.8ZM69.82 12.8C69.47 13 69.07 13.1 68.63 13.1C68.18 13.1 67.78 13 67.42 12.8C67.07 12.59 66.79 12.3 66.58 11.93C66.38 11.55 66.28 11.12 66.28 10.64Q66.28 9.93 66.57 9.38Q66.57 9.37 66.58 9.36C66.79 8.98 67.07 8.69 67.42 8.49C67.78 8.29 68.18 8.18 68.63 8.18C69.07 8.18 69.47 8.29 69.82 8.49C70.18 8.69 70.46 8.98 70.66 9.36Q70.68 9.4 70.7 9.44Q70.97 9.98 70.97 10.64Q70.97 11.31 70.7 11.84Q70.68 11.88 70.66 11.93C70.46 12.3 70.18 12.59 69.82 12.8ZM89.4 12.51C89.03 12.71 88.62 12.8 88.17 12.8C87.71 12.8 87.3 12.71 86.93 12.51Q86.65 12.36 86.42 12.13Q86.23 11.94 86.08 11.69C85.88 11.33 85.78 10.93 85.78 10.49C85.78 10.04 85.88 9.64 86.08 9.29Q86.24 9.02 86.45 8.81Q86.66 8.61 86.93 8.47C87.3 8.28 87.71 8.18 88.17 8.18C88.63 8.18 89.04 8.28 89.4 8.48C89.77 8.67 90.05 8.95 90.25 9.3C90.46 9.64 90.57 10.04 90.57 10.49C90.57 10.93 90.46 11.33 90.25 11.69C90.05 12.04 89.77 12.31 89.4 12.51Z" fill="#000000" fill-opacity="1.000000" fill-rule="evenodd"/>
	<path id="Magic" d="M76.39 23.74Q76.7 23.22 76.95 22.85Q76.83 23.25 76.71 23.71Q76.59 24.18 76.51 24.68Q76.42 25.17 76.37 25.69Q76.31 26.21 76.31 26.73Q76.31 27.17 76.35 27.61Q76.39 28.03 76.48 28.43Q76.58 28.83 76.73 29.18Q76.89 29.53 77.12 29.8Q77.15 29.83 77.17 29.86Q77.39 30.09 77.68 30.26Q78 30.44 78.42 30.5Q78.52 30.52 78.61 30.52Q78.65 30.52 78.68 30.51Q78.73 30.49 78.76 30.45Q78.81 30.41 78.82 30.36Q78.83 30.33 78.83 30.31Q78.83 30.28 78.82 30.26Q78.81 30.21 78.77 30.15Q78.74 30.12 78.71 30.1Q78.67 30.08 78.62 30.07Q78.25 30.06 77.96 29.91Q77.81 29.84 77.68 29.73Q77.57 29.64 77.47 29.53Q77.27 29.29 77.13 28.97Q76.99 28.65 76.91 28.29Q76.82 27.92 76.79 27.53Q76.75 27.14 76.75 26.75Q76.75 26.5 76.76 26.26Q76.78 26.02 76.79 25.79Q76.83 25.31 76.92 24.82Q77.02 24.33 77.13 23.88Q77.25 23.43 77.37 23.05Q77.5 22.65 77.6 22.37Q77.7 22.07 77.77 21.91Q77.84 21.74 77.84 21.73Q77.85 21.69 77.85 21.65Q77.85 21.61 77.84 21.58Q77.83 21.54 77.79 21.5Q77.77 21.47 77.74 21.46Q77.69 21.43 77.63 21.43Q77.58 21.43 77.54 21.45Q77.5 21.46 77.47 21.49Q77.46 21.51 77.3 21.7Q77.14 21.88 76.86 22.27Q76.58 22.65 76.19 23.25Q75.8 23.84 75.34 24.68Q75.01 25.26 74.7 25.92Q74.39 26.58 74.1 27.22Q73.82 27.85 73.59 28.42Q73.37 28.98 73.21 29.38Q73.13 29.04 73.03 28.61Q72.93 28.18 72.83 27.71Q72.72 27.24 72.61 26.75Q72.5 26.26 72.39 25.79Q72.29 25.31 72.19 24.87Q72.09 24.44 72.01 24.08Q72.12 23.63 72.17 23.26Q72.22 22.89 72.22 22.61Q72.22 22.36 72.18 22.2Q72.14 22.05 72.08 21.97Q72.02 21.89 71.94 21.87Q71.87 21.85 71.81 21.85Q71.74 21.85 71.67 21.87Q71.59 21.89 71.53 21.97Q71.46 22.04 71.42 22.2Q71.38 22.35 71.38 22.61Q71.38 22.85 71.42 23.21Q71.47 23.57 71.57 24.09Q71.45 24.45 71.34 24.8Q71.23 25.15 71.11 25.46Q70.72 26.47 70.34 27.21Q69.96 27.96 69.56 28.48Q69.17 29.01 68.77 29.34Q68.37 29.67 67.96 29.86Q67.55 30.04 67.12 30.11Q66.7 30.18 66.25 30.18Q65.99 30.18 65.69 30.12Q65.4 30.07 65.1 29.96Q64.81 29.84 64.54 29.66Q64.35 29.53 64.18 29.37Q64.12 29.31 64.07 29.25Q64.04 29.22 64.02 29.19Q63.85 28.97 63.74 28.7Q63.62 28.4 63.62 28.03Q63.62 27.72 63.72 27.45Q63.75 27.4 63.77 27.34Q63.87 27.17 63.99 27.02Q64.09 26.9 64.21 26.8Q64.48 26.57 64.85 26.45Q64.88 26.43 64.91 26.43Q65.25 26.32 65.63 26.32Q66.08 26.32 66.39 26.42Q66.7 26.52 66.9 26.64Q67.1 26.76 67.19 26.87Q67.28 26.97 67.28 26.97Q67.32 27.03 67.37 27.05Q67.42 27.07 67.47 27.07Q67.53 27.07 67.58 27.05Q67.61 27.03 67.63 27Q67.68 26.95 67.69 26.89Q67.69 26.87 67.69 26.85Q67.69 26.79 67.66 26.73Q67.65 26.73 67.61 26.66Q67.56 26.59 67.45 26.5Q67.35 26.4 67.19 26.29Q67.03 26.18 66.81 26.09Q66.59 25.99 66.29 25.94Q66.01 25.87 65.64 25.87Q65.22 25.87 64.82 25.99Q64.76 26.01 64.69 26.03Q64.27 26.18 63.94 26.45Q63.92 26.46 63.91 26.47Q63.76 26.6 63.64 26.75Q63.48 26.93 63.37 27.15Q63.34 27.22 63.31 27.28Q63.17 27.62 63.17 28.02Q63.17 28.47 63.31 28.84Q63.42 29.12 63.59 29.36Q63.64 29.43 63.69 29.5Q63.8 29.63 63.93 29.75Q64.08 29.88 64.24 30Q64.55 30.2 64.89 30.34Q64.89 30.35 64.89 30.35Q65.23 30.49 65.58 30.55Q65.92 30.62 66.23 30.62Q66.82 30.62 67.35 30.51Q67.61 30.46 67.86 30.37Q68.12 30.27 68.36 30.14Q68.85 29.88 69.29 29.45Q69.73 29.02 70.15 28.4Q70.57 27.76 70.96 26.91Q71.36 26.06 71.75 24.95Q71.87 25.48 72 26.08Q72.14 26.67 72.26 27.25Q72.4 27.82 72.52 28.36Q72.64 28.88 72.73 29.29Q72.83 29.7 72.88 29.94Q72.94 30.18 72.94 30.19Q72.95 30.23 72.96 30.26Q72.98 30.29 73.01 30.32Q73.04 30.34 73.07 30.35Q73.11 30.37 73.15 30.37Q73.22 30.37 73.27 30.33Q73.33 30.3 73.36 30.22Q73.36 30.21 73.45 29.97Q73.55 29.71 73.71 29.3Q73.88 28.89 74.1 28.35Q74.32 27.8 74.58 27.22Q74.85 26.63 75.14 26.03Q75.43 25.43 75.73 24.89Q76.08 24.25 76.39 23.74ZM87.86 26Q87.9 25.91 87.9 25.8Q87.9 25.69 87.86 25.6Q87.86 25.6 87.86 25.6Q87.83 25.53 87.79 25.47Q87.77 25.45 87.75 25.43Q87.72 25.4 87.7 25.38Q87.65 25.34 87.58 25.31Q87.57 25.31 87.57 25.31Q87.48 25.27 87.37 25.27Q87.29 25.27 87.22 25.29Q87.19 25.3 87.16 25.31Q87.15 25.31 87.13 25.32Q87.06 25.36 86.99 25.43Q86.92 25.5 86.88 25.6Q86.88 25.6 86.88 25.6Q86.84 25.69 86.84 25.8Q86.84 25.92 86.88 26.02Q86.92 26.11 86.99 26.18Q87.06 26.25 87.15 26.29Q87.25 26.33 87.37 26.33Q87.49 26.33 87.6 26.29Q87.68 26.25 87.75 26.18Q87.83 26.1 87.86 26ZM87.56 25.74Q87.58 25.77 87.58 25.8Q87.58 25.83 87.56 25.86Q87.55 25.91 87.51 25.94Q87.48 25.97 87.44 25.99Q87.41 26 87.37 26Q87.33 26 87.3 25.99Q87.26 25.97 87.23 25.94Q87.2 25.91 87.18 25.87Q87.17 25.84 87.17 25.8Q87.17 25.76 87.18 25.73Q87.2 25.69 87.23 25.66Q87.26 25.62 87.31 25.61Q87.34 25.6 87.37 25.6Q87.4 25.6 87.43 25.61Q87.48 25.62 87.51 25.66Q87.55 25.69 87.56 25.74ZM86.97 29.5Q86.81 29.78 86.61 30.07Q86.14 30.79 85.41 31.7Q85.41 32.07 85.42 32.44Q85.42 32.81 85.42 33.25Q85.42 33.69 85.4 34.12Q85.38 34.55 85.33 34.94Q85.28 35.33 85.18 35.66Q85.1 35.99 84.95 36.23Q84.81 36.48 84.6 36.61Q84.57 36.64 84.53 36.66Q84.36 36.75 84.13 36.75Q83.9 36.75 83.73 36.65Q83.61 36.58 83.53 36.45Q83.32 36.15 83.32 35.6Q83.32 35.31 83.37 34.96Q83.43 34.62 83.53 34.26Q83.64 33.9 83.78 33.52Q83.94 33.15 84.12 32.8Q84.3 32.45 84.51 32.13Q84.73 31.81 84.97 31.54Q84.97 31.13 84.97 30.73Q84.98 30.32 84.99 29.98Q84.88 30.12 84.75 30.22Q84.66 30.29 84.57 30.34Q84.33 30.46 84.09 30.46Q83.88 30.46 83.71 30.39Q83.63 30.35 83.56 30.29Q83.49 30.23 83.43 30.17Q83.32 30.02 83.25 29.83Q83.22 29.73 83.2 29.63Q83.18 29.67 83.15 29.71Q83.02 29.88 82.87 30.04Q82.84 30.07 82.81 30.1Q82.62 30.27 82.4 30.39Q82.28 30.45 82.15 30.48Q82.05 30.5 81.94 30.5Q81.73 30.5 81.57 30.42Q81.46 30.37 81.37 30.28Q81.34 30.25 81.31 30.22Q81.13 30.02 81.04 29.74Q80.84 30.07 80.56 30.27Q80.29 30.46 80.01 30.46Q79.79 30.46 79.62 30.39Q79.49 30.33 79.39 30.24Q79.35 30.21 79.32 30.17Q79.2 30.02 79.13 29.83Q79.06 29.63 79.06 29.4Q79.06 28.95 79.21 28.6Q79.37 28.25 79.61 28.02Q79.85 27.78 80.14 27.66Q80.43 27.55 80.7 27.55Q80.88 27.55 81.04 27.6Q81.19 27.65 81.29 27.71Q81.41 27.76 81.46 27.82Q81.52 27.86 81.53 27.87Q81.59 27.94 81.59 28.01Q81.59 28.02 81.59 28.03Q81.59 28.06 81.58 28.09Q81.57 28.14 81.53 28.19Q81.49 28.22 81.45 28.24Q81.41 28.25 81.38 28.25Q81.32 28.25 81.28 28.23Q81.25 28.21 81.22 28.19Q81.21 28.17 81.16 28.14Q81.12 28.11 81.05 28.07Q80.98 28.04 80.88 28.02Q80.79 27.99 80.67 27.99Q80.49 27.99 80.28 28.07Q80.08 28.15 79.91 28.33Q79.74 28.5 79.62 28.76Q79.51 29.02 79.51 29.37Q79.51 29.49 79.53 29.6Q79.55 29.69 79.58 29.76Q79.6 29.78 79.61 29.81Q79.63 29.84 79.65 29.86Q79.7 29.92 79.77 29.96Q79.87 30.02 80.02 30.02Q80.12 30.02 80.26 29.95Q80.4 29.88 80.52 29.73Q80.65 29.59 80.75 29.36Q80.85 29.14 80.9 28.84Q80.9 28.8 80.92 28.76Q80.94 28.73 80.97 28.7Q81 28.67 81.04 28.66Q81.08 28.64 81.12 28.64Q81.16 28.64 81.19 28.65Q81.23 28.67 81.26 28.71Q81.31 28.75 81.33 28.81Q81.33 28.83 81.33 28.85Q81.34 28.96 81.36 29.17Q81.38 29.37 81.43 29.57Q81.5 29.77 81.62 29.91Q81.66 29.96 81.71 29.99Q81.82 30.06 81.96 30.06Q81.98 30.06 82 30.06Q82.12 30.05 82.24 29.98Q82.38 29.91 82.51 29.79Q82.64 29.66 82.76 29.5Q82.88 29.33 82.98 29.17Q83.08 29.01 83.16 28.85Q83.23 28.7 83.29 28.59Q83.31 28.53 83.35 28.5Q83.36 28.5 83.37 28.49Q83.38 28.48 83.4 28.47Q83.54 28.21 83.74 28.02Q83.98 27.78 84.26 27.66Q84.56 27.55 84.83 27.55Q85.01 27.55 85.16 27.59Q85.31 27.64 85.42 27.7Q85.53 27.76 85.59 27.81Q85.65 27.86 85.65 27.87Q85.7 27.92 85.71 27.97Q85.72 28 85.72 28.03Q85.72 28.06 85.71 28.09Q85.7 28.14 85.65 28.19Q85.62 28.22 85.57 28.24Q85.54 28.25 85.5 28.25Q85.49 28.25 85.48 28.25Q85.41 28.24 85.34 28.19Q85.32 28.17 85.28 28.14Q85.24 28.1 85.18 28.07Q85.12 28.03 85.03 28.01Q84.95 27.99 84.83 27.99Q84.66 27.99 84.45 28.07Q84.24 28.14 84.05 28.31Q83.87 28.48 83.75 28.75Q83.63 29.02 83.63 29.39Q83.63 29.67 83.75 29.85Q83.78 29.89 83.82 29.93Q83.94 30.02 84.13 30.02Q84.25 30.02 84.39 29.95Q84.53 29.88 84.66 29.73Q84.79 29.59 84.88 29.36Q84.98 29.14 85.02 28.84Q85.03 28.8 85.04 28.76Q85.06 28.73 85.1 28.7Q85.13 28.67 85.16 28.66Q85.2 28.64 85.25 28.64Q85.31 28.64 85.36 28.67Q85.38 28.69 85.4 28.71Q85.44 28.75 85.45 28.8Q85.46 28.83 85.46 28.87Q85.46 28.88 85.45 29.05Q85.45 29.22 85.44 29.51Q85.44 29.8 85.42 30.18Q85.42 30.55 85.41 30.97Q86.51 29.54 86.94 28.59Q86.96 28.56 86.97 28.54Q86.97 28.51 86.97 28.49Q87 28.02 87.06 27.55Q87.07 27.51 87.08 27.48Q87.1 27.44 87.13 27.41Q87.15 27.39 87.18 27.37Q87.23 27.35 87.29 27.35Q87.33 27.35 87.37 27.36Q87.41 27.38 87.44 27.42Q87.47 27.45 87.48 27.49Q87.5 27.52 87.5 27.57Q87.5 27.61 87.48 27.78Q87.47 27.96 87.45 28.2Q87.43 28.44 87.41 28.72Q87.4 28.99 87.4 29.22Q87.4 29.53 87.46 29.72Q87.52 29.91 87.62 30.01Q87.72 30.12 87.82 30.15Q87.93 30.19 88.03 30.19Q88.2 30.19 88.37 30.07Q88.55 29.96 88.73 29.74Q88.92 29.53 89.1 29.24Q89.29 28.94 89.47 28.58Q89.5 28.54 89.53 28.51Q89.54 28.5 89.55 28.49Q89.56 28.44 89.58 28.4Q89.68 28.09 89.85 27.86Q90.02 27.63 90.25 27.5Q90.39 27.42 90.54 27.39Q90.64 27.37 90.74 27.37Q90.93 27.37 91.09 27.44Q91.25 27.5 91.35 27.61Q91.46 27.72 91.52 27.85Q91.52 27.85 91.52 27.86Q91.59 27.99 91.59 28.13Q91.59 28.26 91.55 28.37Q91.52 28.48 91.47 28.57Q91.42 28.65 91.36 28.7Q91.3 28.75 91.23 28.75Q91.17 28.75 91.12 28.72Q91.09 28.71 91.07 28.68Q91.05 28.66 91.03 28.63Q91.01 28.59 91.01 28.53Q91.01 28.48 91.03 28.44L91.07 28.37Q91.1 28.33 91.12 28.28Q91.14 28.22 91.14 28.13Q91.14 28.11 91.14 28.08Q91.12 27.99 91.03 27.91Q91 27.89 90.98 27.88Q90.88 27.81 90.74 27.81Q90.71 27.81 90.68 27.81Q90.55 27.83 90.42 27.91Q90.28 28.01 90.16 28.18Q90.05 28.34 89.98 28.57Q89.92 28.79 89.92 29.05Q89.92 29.29 89.98 29.5Q90.04 29.72 90.15 29.89Q90.21 29.97 90.28 30.04Q90.36 30.1 90.45 30.15Q90.63 30.25 90.87 30.25Q91.19 30.25 91.46 30.14Q91.73 30.03 91.95 29.85Q92.17 29.67 92.34 29.47Q92.51 29.26 92.63 29.08Q92.75 28.89 92.82 28.75Q92.89 28.61 92.9 28.58Q92.92 28.54 92.94 28.52Q92.96 28.5 92.98 28.49Q93.02 28.47 93.06 28.46Q93.08 28.46 93.1 28.46Q93.16 28.46 93.21 28.48Q93.24 28.5 93.26 28.53Q93.3 28.57 93.32 28.62Q93.32 28.65 93.32 28.68Q93.32 28.72 93.3 28.78Q93.26 28.84 93.18 29.01Q93.09 29.18 92.95 29.4Q92.81 29.61 92.61 29.84Q92.41 30.07 92.15 30.26Q91.89 30.45 91.57 30.57Q91.25 30.69 90.88 30.69Q90.55 30.69 90.29 30.57Q90.16 30.51 90.05 30.43Q89.94 30.34 89.85 30.24Q89.67 30.01 89.57 29.71Q89.53 29.57 89.51 29.42Q89.48 29.46 89.45 29.5Q89.32 29.71 89.15 29.91Q88.99 30.11 88.81 30.28Q88.63 30.44 88.43 30.54Q88.26 30.62 88.08 30.63Q88.05 30.63 88.03 30.63Q87.76 30.63 87.56 30.52Q87.49 30.48 87.43 30.44Q87.32 30.35 87.22 30.22Q87.09 30.04 87.02 29.79Q86.98 29.65 86.97 29.5ZM84.47 33.08Q84.69 32.64 84.97 32.26Q84.98 32.52 84.98 32.77L84.98 33.28Q84.98 33.56 84.97 33.89Q84.96 34.23 84.93 34.56Q84.9 34.9 84.84 35.22Q84.78 35.53 84.69 35.77Q84.59 36.02 84.46 36.17Q84.37 36.26 84.27 36.29Q84.21 36.31 84.14 36.31Q84.08 36.31 84.01 36.29Q83.95 36.27 83.89 36.2Q83.84 36.12 83.8 36Q83.76 35.87 83.76 35.65Q83.76 35.31 83.84 34.88Q83.93 34.45 84.09 33.99Q84.25 33.54 84.47 33.08Z" fill="#000000" fill-opacity="1.000000" fill-rule="evenodd"/>
</svg>
